<?xml version="1.0" encoding="utf-8"?>
<!-- Generator: Adobe Illustrator 24.2.1, SVG Export Plug-In . SVG Version: 6.00 Build 0)  -->
<svg version="1.1" id="Capa_1" xmlns="http://www.w3.org/2000/svg" xmlns:xlink="http://www.w3.org/1999/xlink" x="0px" y="0px"
	 viewBox="0 0 500 500" style="enable-background:new 0 0 500 500;" xml:space="preserve">
<g id="wXKueh_2_1" class="svgImg">
	<g>
		<path class="st23" d="M63.98,236.82c1.52-1.88,1.23-4.26,1.74-6.41c2.18-9.24,5.52-18.11,10.38-26.18
			c6.52-10.84,9-22.34,8.97-34.87c-0.04-15.07,1.98-29.93,8.12-43.91c2.43-5.53,5.15-10.94,6.13-16.96
			c0.64-3.94,1.02-7.92,1.68-11.85c1.6-9.65,6.99-16.16,16.59-18.45c9.6-2.29,17.35,1.22,23.32,8.83
			c7.19,9.17,10.65,19.95,13.14,31.11c1.55,6.95,2.81,13.98,5.28,20.69c1.56,4.22,3.24,8.55,6.76,11.44
			c9.79,8.04,13.97,18.75,15.9,30.82c1.71,10.63,4.58,20.99,7.88,31.24c1.45,4.5,2.47,9.09,2.87,13.81
			c0.14,1.72,0.46,2.83,2.73,2.82c20.7-0.09,41.4-0.04,62.1-0.06c1.13,0,2.47,0.34,2.6-1.59c0.89-13.61,5.54-26.47,7.93-39.78
			c1.05-5.83,2.01-11.67,3.71-17.36c1.61-5.39,3.69-10.74,8.06-14.36c9.79-8.11,13.53-19.1,15.9-30.91
			c2.39-11.88,5.2-23.62,11.82-34.02c4.3-6.76,9.72-12.16,18.15-13.15c12.14-1.42,22.14,6.07,24.46,18.17
			c0.54,2.85,0.89,5.74,1.19,8.62c0.63,6.08,2.32,11.85,5.03,17.3c6.84,13.72,8.94,28.49,9.79,43.54c0.23,4.11,0.58,8.23,0.43,12.33
			c-0.28,7.79,2.32,14.62,5.94,21.33c5.97,11.07,11.91,22.31,13.42,34.97c0.68,5.71,3.36,8.62,7.79,11.7
			c23.81,16.55,37.64,39.37,41.51,68.16c0.08,0.57-0.05,1.23,0.73,1.45c0,7.02,0,14.05,0,21.07c-1.48,1.26-0.96,3.11-1.27,4.67
			c-7.98,40.17-31.39,67.25-70.81,77.73c-39.78,10.58-73.8-1.51-100.43-33.01c-10.33-12.22-16.58-26.57-19.56-42.33
			c-0.24-1.25,0.23-3.05-1.73-3.62c-6.05-1.74-12.16-3.74-18.48-3.03c-17.7,2-33.26,8.99-46.33,21.2
			c-6.95,6.49-15.29,9.88-24.59,10.26c-24.95,1.03-46.17-7.89-63.74-25.37c-6.7-6.67-10.64-14.84-10.77-24.63
			c-0.06-4.7-0.74-9.4-1.64-14.04c-2.25-11.65-6.8-22.66-9.49-34.2c-1.16-4.99-1.16-10.22-3.2-15.01
			C63.98,248.93,63.98,242.87,63.98,236.82z M87.4,297.8c1.02-0.65,1.84-1.14,2.63-1.68c6.69-4.64,14.11-6.76,22.24-6.38
			c3.15,0.15,5.35,2.22,5.49,5.13c0.16,3.29-1.5,5.23-4.63,5.93c-1.41,0.31-2.86,0.5-4.31,0.59c-7.08,0.41-12.68,3.61-17.08,9.04
			c-1,1.23-1.98,2.58-1.99,4.19c-0.04,7.1,1.71,13.58,6.65,19c12.3,13.51,27.91,20.61,45.68,22.91c10.74,1.39,20.44-0.99,29.29-8.47
			c19.69-16.65,41.78-26.96,68.57-20.94c2.07,0.46,2.19-0.25,2.25-1.87c0.14-3.62,0.24-7.26,0.7-10.85
			c2.38-18.52,9.21-35.19,20.99-49.76c0.96-1.19,2.09-2.34,2.1-4.1c0.02-5.6-0.65-11.07-2.54-16.38c-0.97-2.73-2.53-3.79-5.65-3.77
			c-20.95,0.17-41.89,0.1-62.84,0.08c-5.76,0-6.45,0.43-8.03,6.01c-1.71,6.01-1.7,12.17-1.52,18.35c0.11,3.95-1.84,6.4-5.12,6.69
			c-3.05,0.27-6.04-2.07-6.3-5.75c-0.81-11.23-0.31-22.3,6.47-32.01c0.97-1.4,1.27-2.71,1.11-4.38c-0.79-8.25-3.62-15.98-5.81-23.88
			c-0.53-1.92-1.6-2.58-3.45-1.98c-3.56,1.16-7.18,2.15-10.64,3.56c-10.92,4.47-20.7,10.49-27.27,20.74
			c-1.56,2.43-2.38,4.9-2.13,7.85c0.81,9.3,3,18.32,5.24,27.33c1.08,4.33-0.3,7.34-3.88,8.38c-3.2,0.93-6-1.04-7.18-5.37
			c-3.31-12.13-6.17-24.34-5.92-37.05c0.02-0.97,0.68-2.4-0.72-2.85c-1.07-0.35-2.07,0.52-2.93,1.17
			c-4.58,3.43-6.94,8.29-8.46,13.61c-1.63,5.72-2.4,11.55-2.45,17.52c-0.04,3.88-2.79,6.69-5.84,6.65
			c-3.57-0.05-5.62-2.62-5.72-6.94c-0.14-6.58,0.73-13.06,2.59-19.32c3.46-11.7,8.89-21.82,22.17-24.85
			c1.61-0.37,1.6-1.57,1.47-2.83c-0.51-4.92-1.02-9.84-1.56-14.76c-0.19-1.72-1.12-2.67-2.84-3.32c-4.11-1.55-8.36-1.82-12.5-0.94
			c-4.55,0.97-9.4,2.07-11.9,6.68c-2.94,5.42-5.63,10.98-8.3,16.53c-6.03,12.54-9.26,25.51-7.24,39.63
			C78.36,269.58,83.34,283.43,87.4,297.8z M338.79,410.5c46.07,0.64,85.31-36.81,85.53-84.62c0.22-48.4-39.36-85.55-85.06-85.59
			c-45.17-0.04-85.18,35.7-85.33,84.92C253.78,374.38,293.66,410.74,338.79,410.5z M318.57,211.64c1.02-3.58,1.01-6.71,1.4-9.79
			c1.36-10.69,2.1-21.41,0.46-32.11c-1.51-9.82-5.72-17.85-15.59-21.88c-2.58-1.05-3.98-0.96-5.21,1.88
			c-1.74,4.01-4.5,7.48-7.86,10.28c-5.15,4.29-8.25,9.73-9.7,16.15c-1.01,4.46-1.69,9-2.71,13.45c-0.38,1.67,0.24,2.14,1.62,2.49
			C294.88,195.61,307.59,201.44,318.57,211.64z M132.3,211.62c3.29-2.56,5.86-4.75,8.61-6.67c8.52-5.93,17.91-9.96,27.96-12.44
			c2.27-0.56,3.56-1.18,2.74-3.97c-0.95-3.22-1.52-6.57-2.06-9.89c-1.2-7.29-4.26-13.46-10-18.32c-3.62-3.07-6.38-6.97-8.43-11.24
			c-1.07-2.22-2.18-2.29-4.22-1.48c-8.33,3.3-13.32,9.49-15.26,18.01C128.19,180.77,130.54,195.86,132.3,211.62z M342.92,191.78
			c-2.77-0.34-5.55,0.43-8.3,1.43c-1.39,0.5-2.37,1.26-2.41,2.81c-0.23,9.73-3.1,19.28-1.7,29.17c0.43,3.01,1.11,3.84,4.04,3.68
			c12.06-0.69,23.84,0.95,35.33,4.69c1.28,0.42,2.81,1.88,3.97,0.68c1.08-1.11-0.38-2.69-0.5-4.1c-0.09-1.05-0.65-2.06-0.97-3.1
			c-2.94-9.54-7.97-18.11-12.35-26.99c-1.39-2.81-3.37-4.68-6.06-5.91C350.54,192.56,346.98,191.42,342.92,191.78z M277.16,251.04
			c11.99-9.7,24.84-16.15,39.1-19.68c3.26-0.81,1.36-2.36,0.58-3.53c-9.13-13.74-22.95-20.17-38.18-24.36
			c-1.62-0.45-2.24,0.29-2.67,1.94c-1.69,6.54-3.44,13.08-4.04,19.8c-0.27,3.08-1.77,6.5-0.39,9.26
			C274.13,239.59,275.94,244.87,277.16,251.04z M96.14,177.94c-0.19,3.87-0.19,3.85,3.53,3.08c5-1.03,10.04-1.48,15.07-0.27
			c2.96,0.71,3.73-0.42,3.73-3.29c0-9.7,2.08-18.91,7.23-27.26c0.69-1.11,0.98-2.21,0.78-3.42c-1.3-7.71-4.72-13.94-12.36-17.01
			c-8.41-3.39-9.45-2.84-12.37,5.68C97.04,149.23,96.81,163.61,96.14,177.94z M324.78,146.8c-0.09,1.1-0.06,2.14,0.57,3.13
			c5.49,8.64,7.32,18.26,7.46,28.29c0.03,2.29,0.83,3.08,3.01,2.6c5.65-1.24,11.26-1.01,16.82,0.53c1.92,0.53,2.78,0.09,2.49-2.03
			c-0.98-7.19-0.23-14.46-1.18-21.68c-1.21-9.23-2.67-18.36-6.36-26.98c-0.54-1.27-0.82-2.72-2.82-2.79
			C335.19,127.59,325.17,137,324.78,146.8z M328.2,89.26c-2.46-0.34-4.78,0.96-6.89,3.01c-3.01,2.92-5.12,6.42-6.91,10.14
			c-4.83,10.02-6.2,21.01-8.96,31.62c-0.33,1.25,0.22,1.95,1.27,2.15c2.78,0.5,4.88,3,7.92,2.61c0.19-0.02,0.34-0.61,0.47-0.95
			c4.29-11.69,12.67-18.55,24.83-20.83c1.79-0.34,1.77-1.24,1.44-2.56c-1.13-4.46-1.55-9.02-2.11-13.57
			C338.28,93.04,334.81,89.33,328.2,89.26z M122.18,89.27c-4.64,0-8.44,2.88-9.44,7.93c-0.98,4.95-1.21,10.06-2.42,14.95
			c-0.85,3.45-0.36,4.78,3.32,5.53c9.16,1.85,15.84,7.29,20.45,15.38c1.13,1.98,1.19,5.42,3.07,5.8c1.97,0.41,4.39-1.57,6.66-2.36
			c1.61-0.56,2.27-1.15,1.71-3.1c-1.03-3.57-1.58-7.29-2.41-10.92c-2.12-9.32-4.53-18.54-10.09-26.53
			C130.48,92.29,127.54,89.11,122.18,89.27z"/>
		<path class="st23" d="M146.71,318.63c0.55-13,7.51-21.94,18.38-28.28c2.71-1.58,6.06-0.57,7.67,1.9c1.75,2.69,1.16,5.73-1.8,7.9
			c-3.31,2.43-6.65,4.74-9.1,8.17c-2.81,3.94-3.87,8.23-3.36,12.98c0.46,4.32-1.19,7.06-4.59,7.68c-3.22,0.59-5.96-1.76-6.78-5.94
			C146.85,321.63,146.85,320.17,146.71,318.63z"/>
		<path class="st23" d="M288.21,285.35c-3.8-5.44-4.11-8.05-1.32-10.58c2.74-2.49,5.34-2.07,9.91,1.62c1-0.68,0.89-1.83,1.19-2.81
			c1-3.28,3.94-5.11,6.87-4.33c3.35,0.88,5.18,3.74,4.51,7.15c-0.64,3.29-1.36,6.57-2.15,10.33c3.14-0.93,5.65-2.45,8.49-2.67
			c3.91-0.3,7.68,0.08,11.33,1.76c4.19,1.92,6.05,0.4,6.49-4.06c0.51-5.26-0.7-9.21-5.88-11.41c-1.2-0.51-2.2-1.48-3.27-2.28
			c-3.12-2.32-3.82-5.3-1.94-8.15c1.88-2.84,5.02-3.43,8.26-1.57c0.72,0.41,1.43,0.83,2.64,1.53c0.14-2.79-0.07-5.44,2.18-7.13
			c1.09-0.82,2.36-1.28,3.7-1.31c3.28-0.07,5.28,2.57,6.22,8.23c0.98-0.54,1.89-1.08,2.83-1.56c3.11-1.58,6.25-0.83,7.94,1.88
			c1.49,2.39,0.82,5.74-1.62,7.78c-0.83,0.7-1.7,1.46-2.68,1.84c-6.46,2.48-7.63,7.49-6.85,13.63c0.21,1.68,0.55,2.66,2.39,2.95
			c5.84,0.93,11.12,3.29,15.83,6.82c1.78,1.33,2.73,0.81,4.28-0.46c3.97-3.26,6.23-6.76,3.86-12.04c-0.67-1.49-0.76-3.29-0.86-4.97
			c-0.21-3.6,1.69-6.22,4.94-6.46c3.08-0.22,5.34,1.24,6.24,4.38c0.29,1.01,0.58,2.03,1,3.45c2.27-1.68,3.97-4.1,6.96-3.68
			c1.35,0.19,2.53,0.8,3.48,1.81c2.4,2.55,1.94,5.33-1.78,10.34c1.23,0.31,2.4,0.55,3.53,0.91c3.09,0.98,4.77,4,4.01,7.14
			c-0.69,2.87-3.56,4.73-6.7,4.25c-1.43-0.22-2.94-0.35-4.24-0.91c-6.14-2.66-9.96,0.6-13.51,4.95c-0.86,1.06-0.83,1.81-0.21,2.89
			c1.39,2.39,2.55,4.83,4.93,6.59c2.76,2.03,4.65,4.87,5.93,8.1c1.22,3.1,6.06,3.61,8.11,0.82c1.72-2.33,3.2-4.85,4.91-7.19
			c2.54-3.49,5.48-4.33,8.38-2.55c3.01,1.84,3.6,5.01,1.39,8.84c-1.02,1.77-0.89,2.33,1.23,2.77c2.72,0.55,4.02,2.86,4.07,5.38
			c0.05,2.38-1.15,4.6-3.65,5.32c-2.24,0.65-2.52,1.34-1.33,3.41c1.96,3.41,1.14,6.47-1.72,8.2c-2.9,1.75-5.8,0.99-8.13-2.23
			c-1.13-1.57-2.46-3.09-3.17-4.85c-1.72-4.24-5.15-4.03-8.7-3.81c-0.77,0.05-1.51,0.25-1.82,0.98c-2.44,5.81-8.54,8.77-11.17,14.53
			c-0.98,2.15-1.19,3.13,0.37,5.2c4.41,5.84,9.46,7.64,16.45,5.01c2.99-1.13,6.33-0.7,8.04,2.94c1.18,2.52,0.63,4.74-1.26,6.63
			c-1.53,1.52-3.65,1.71-5.85,2.17c2.05,3.05,3,6.13,0.1,8.96c-2.75,2.67-5.72,1.88-8.64-0.1c-0.51,1.56-0.8,3.1-1.49,4.42
			c-1.32,2.54-3.58,3.69-6.36,2.94c-2.65-0.72-4.42-2.42-4.38-5.47c0.04-3.42,1.07-6.67,1.79-9.96c0.32-1.46,0.32-2.49-0.81-3.57
			c-2.37-2.25-4.69-4.56-6.93-6.94c-1.05-1.11-1.83-1.07-3.06-0.24c-4.15,2.82-8.75,4.61-13.69,5.5c-1.94,0.35-2.48,1.29-2.81,3.36
			c-1.11,7.1,1.23,12.03,7.82,15.06c1.95,0.9,3.74,2.32,4.05,4.79c0.28,2.29-0.08,4.34-2.13,5.8c-1.96,1.39-3.98,1.66-6.12,0.47
			c-0.95-0.53-1.88-1.08-3.16-1.81c-0.7,4.06-2.1,7.85-6.96,7.38c-3.86-0.37-5.36-3.32-5.15-7.04c-1.41-0.17-2.12,0.81-3.05,1.31
			c-2.99,1.6-6.08,0.87-7.95-1.88c-1.69-2.49-1.15-5.67,1.37-7.76c0.65-0.54,1.34-1.14,2.11-1.4c7.86-2.67,8.34-8.83,7.66-15.68
			c-0.15-1.5-0.71-2.18-2.05-2.47c-4.89-1.05-9.5-2.81-13.71-5.54c-0.96-0.62-1.76-0.69-2.57,0.16c-0.25,0.26-0.51,0.51-0.78,0.76
			c-7.51,7.02-7.51,7.02-5.29,17c0.93,4.18-0.52,7.26-3.84,8.17c-3.32,0.91-6.02-0.95-7.36-5.09c-0.32-0.99-0.35-2.51-2-1.57
			c-2.94,1.69-5.6,1.53-7.78-1.12c-2.18-2.64-1.38-5.39,0.35-8.28c-1.33-0.41-2.55-0.74-3.73-1.17c-3.19-1.16-4.02-3.69-3.53-6.72
			c0.48-2.93,2.46-4.31,5.38-4.34c3.18-0.04,6.24,0.77,9.26,1.54c2.41,0.61,4.09,0.1,5.68-1.79c1.7-2.03,4.49-3.55,5.32-5.83
			c0.94-2.57-2.3-4.42-3.41-6.76c-1.57-3.29-3.11-6.58-3.82-10.15c-0.39-2-1.34-2.26-3.15-2.51c-5.88-0.82-10.35,0.66-12.76,6.52
			c-0.4,0.98-1.2,1.81-1.87,2.67c-2.15,2.77-5.29,3.45-8.01,1.77c-2.74-1.69-3.42-4.7-1.77-7.92c0.43-0.84,0.95-1.64,1.57-2.7
			c-2.82-0.38-5.57-0.39-7.4-2.68c-0.96-1.2-1.18-2.62-1.08-4.11c0.24-3.5,2.39-4.93,8.09-5.31c0.5-1.54-0.95-2.32-1.43-3.46
			c-1.33-3.15-0.47-6.15,2.39-7.83c2.62-1.55,5.6-0.83,7.63,1.89c0.87,1.16,1.84,2.32,2.37,3.64c2.26,5.65,6.67,6.6,12.05,5.97
			c1.56-0.18,2.47-0.52,2.77-2.13c0.68-3.59,1.96-6.99,0.22-10.84c-1.39-3.07-0.98-6.65-0.06-9.98c0.77-2.8-0.31-3.54-2.94-2.94
			c-2.59,0.59-5.2,1.08-7.8,1.6c-3.75,0.75-7.11-1.25-7.8-4.63c-0.61-3.03,1.46-5.72,5.14-6.7
			C286.61,285.94,287.38,285.63,288.21,285.35z M343.57,355.39c8.13-0.2,17.04-5.8,22.56-16.71c1.11-2.2,2.32-4.01,4.57-5.36
			c5.49-3.31,5.45-10.71-0.01-14.03c-2.08-1.26-3.45-2.83-4.44-5.02c-5.93-13.07-19.95-19.9-33.89-16.33
			c-3.61,0.93-6.62,1.07-9.87-1.21c-3.13-2.2-7-1.46-9.67,1.06c-2.74,2.58-3.72,6.32-1.71,9.57c2.08,3.37,1.78,6.36,0.61,9.91
			C305.51,336.26,319.48,355.36,343.57,355.39z"/>
		<path class="st23" d="M340.16,327.21c0.06,3.47-2.39,6.07-5.75,6.07c-2.85,0-5.77-2.91-5.84-5.83c-0.07-3.06,2.49-5.6,5.75-5.68
			C337.65,321.68,340.1,323.96,340.16,327.21z"/>
	</g>
</g>
</svg>
